<svg width="218" height="51" viewBox="0 0 218 51" fill="none" xmlns="http://www.w3.org/2000/svg">
    <path d="M41.408 50.832L31.296 27.344L21.056 50.832L0 2H2.24L21.12 45.648L30.208 24.784L20.352 2H22.528L31.488 22.672L40.512 2H42.496L32.512 25.04L41.536 45.84L60.48 2H62.72L41.408 50.832ZM67.806 2H85.022V3.856H69.918V29.968H82.526V31.824H69.918V48.144H85.022V50H67.806V2ZM119.264 50L93.8555 23.312V50H91.7435V2H93.8555V19.408L113.888 2H116.896L94.4315 21.2L122.08 50H119.264ZM131.541 3.856H120.469V2H144.597V3.856H133.653V50H131.541V3.856ZM191.047 50H188.807L179.719 31.696H154.247L145.351 50H143.111L167.047 0.848L191.047 50ZM178.951 29.84L166.919 5.456L155.143 29.84H178.951ZM198.181 2H200.933C205.925 2 209.765 3.32266 212.453 5.968C215.184 8.61333 216.549 12.3893 216.549 17.296C216.549 20.112 215.866 22.6933 214.501 25.04C213.178 27.3867 211.365 29.2427 209.061 30.608C206.757 31.9307 204.218 32.592 201.445 32.592H200.997L217.509 50H214.757L200.229 34.768V50H198.181V2ZM201.381 30.736C203.813 30.736 206.032 30.1387 208.037 28.944C210.042 27.7493 211.621 26.1493 212.773 24.144C213.925 22.096 214.501 19.8347 214.501 17.36C214.501 13.0507 213.328 9.72267 210.981 7.376C208.677 5.02933 205.37 3.856 201.061 3.856H200.229V30.736H201.381Z" fill="white"/>
</svg>
